<?xml version="1.0" encoding="UTF-8" standalone="no"?>
<!-- Created with Inkscape (http://www.inkscape.org/) -->

<svg
   width="1024mm"
   height="128mm"
   viewBox="0 0 1024 128"
   version="1.1"
   id="svg5"
   inkscape:version="1.2.2 (732a01da63, 2022-12-09)"
   sodipodi:docname="WebsiteHead.Svg"
   xmlns:inkscape="http://www.inkscape.org/namespaces/inkscape"
   xmlns:sodipodi="http://sodipodi.sourceforge.net/DTD/sodipodi-0.dtd"
   xmlns:xlink="http://www.w3.org/1999/xlink"
   xmlns="http://www.w3.org/2000/svg"
   xmlns:svg="http://www.w3.org/2000/svg">
  <sodipodi:namedview
     id="namedview7"
     pagecolor="#ffffff"
     bordercolor="#666666"
     borderopacity="1.0"
     inkscape:showpageshadow="2"
     inkscape:pageopacity="0.0"
     inkscape:pagecheckerboard="0"
     inkscape:deskcolor="#d1d1d1"
     inkscape:document-units="mm"
     showgrid="false"
     showguides="true"
     inkscape:zoom="0.31723122"
     inkscape:cx="1869.299"
     inkscape:cy="223.81152"
     inkscape:window-width="1920"
     inkscape:window-height="1017"
     inkscape:window-x="-8"
     inkscape:window-y="-8"
     inkscape:window-maximized="1"
     inkscape:current-layer="layer1" />
  <defs
     id="defs2">
    <rect
       x="1071.7735"
       y="75.917287"
       width="2637.0093"
       height="317.06632"
       id="rect1658" />
    <rect
       x="1156.6222"
       y="75.917287"
       width="1868.905"
       height="334.92921"
       id="rect1646" />
    <rect
       x="1243.7038"
       y="111.64307"
       width="2177.0398"
       height="305.90201"
       id="rect1640" />
    <rect
       x="1223.608"
       y="131.73882"
       width="2389.1617"
       height="259.01192"
       id="rect1554" />
    <linearGradient
       inkscape:collect="always"
       id="linearGradient1374">
      <stop
         style="stop-color:#ffaaaa;stop-opacity:1;"
         offset="0"
         id="stop1370" />
      <stop
         style="stop-color:#ffaaaa;stop-opacity:0;"
         offset="1"
         id="stop1372" />
    </linearGradient>
    <linearGradient
       inkscape:collect="always"
       xlink:href="#linearGradient1374"
       id="linearGradient1376"
       x1="-235.12961"
       y1="210.90771"
       x2="1228.818"
       y2="181.95959"
       gradientUnits="userSpaceOnUse" />
    <rect
       x="1071.7736"
       y="75.91729"
       width="2637.0093"
       height="317.06631"
       id="rect1658-0" />
  </defs>
  <g
     inkscape:label="Layer 1"
     inkscape:groupmode="layer"
     id="layer1">
    <rect
       style="fill:#ffffff;fill-rule:evenodd;stroke-width:0.288329"
       id="rect422"
       width="1021.6983"
       height="127.60802"
       x="0.83403778"
       y="-5.9077902e-06" />
    <rect
       style="fill:url(#linearGradient1376);fill-opacity:1;stroke-width:0.628785"
       id="rect566"
       width="1023.9485"
       height="128.21361"
       x="0.1710715"
       y="0.079027824" />
    <path
       sodipodi:type="star"
       style="fill:#ffaaaa;stroke-width:0.264583"
       id="path1432"
       inkscape:flatsided="false"
       sodipodi:sides="5"
       sodipodi:cx="46.671455"
       sodipodi:cy="37.809788"
       sodipodi:r1="53.251999"
       sodipodi:r2="26.625999"
       sodipodi:arg1="0.69899961"
       sodipodi:arg2="1.3273181"
       inkscape:rounded="0"
       inkscape:randomized="0"
       d="M 87.43513,72.074905 53.090444,63.650462 26.680061,87.166849 24.07909,51.899816 -6.4475803,34.049012 26.289618,20.67723 33.833481,-13.871561 56.667152,13.131257 91.856186,9.6297333 73.230973,39.690174 Z"
       inkscape:transform-center-x="3.967153"
       inkscape:transform-center-y="-1.1621441"
       transform="translate(12.406336,-1.1815558)" />
    <path
       sodipodi:type="star"
       style="fill:#ffaaaa;stroke-width:0.264583"
       id="path1434"
       inkscape:flatsided="false"
       sodipodi:sides="5"
       sodipodi:cx="112.83858"
       sodipodi:cy="96.887573"
       sodipodi:r1="36.537594"
       sodipodi:r2="18.268797"
       sodipodi:arg1="0.88847977"
       sodipodi:arg2="1.5167983"
       inkscape:rounded="0"
       inkscape:randomized="0"
       d="m 135.87891,125.24491 -22.05433,-10.11517 -20.835578,12.4334 2.804932,-24.10068 -18.263406,-15.973685 23.787882,-4.779871 9.54817,-22.30567 11.89678,21.146558 24.1645,2.188018 -16.43526,17.84916 z"
       inkscape:transform-center-x="-2.7509629"
       inkscape:transform-center-y="-0.76756045"
       transform="rotate(17.195809,14.196597,-40.069791)" />
    <path
       sodipodi:type="star"
       style="fill:#ffaaaa;stroke-width:0.264583"
       id="path1436"
       inkscape:flatsided="false"
       sodipodi:sides="5"
       sodipodi:cx="43.717564"
       sodipodi:cy="100.43224"
       sodipodi:r1="23.303923"
       sodipodi:r2="11.651961"
       sodipodi:arg1="0.53172407"
       sodipodi:arg2="1.1600426"
       inkscape:rounded="0"
       inkscape:randomized="0"
       d="m 63.804012,112.2478 -15.433815,-1.1328 -9.682843,12.0718 -3.691949,-15.02849 -14.47313,-5.47854 13.152065,-8.155306 0.737956,-15.457726 11.820372,9.988228 14.929213,-4.074862 -5.846673,14.328374 z"
       inkscape:transform-center-x="1.5544208"
       inkscape:transform-center-y="0.69452402"
       transform="translate(97.478351,-72.074905)" />
    <path
       sodipodi:type="star"
       style="fill:#ffaaaa;stroke-width:0.264583"
       id="path1438"
       inkscape:flatsided="false"
       sodipodi:sides="5"
       sodipodi:cx="-1.1815559"
       sodipodi:cy="67.939461"
       sodipodi:r1="18.456491"
       sodipodi:r2="9.2282448"
       sodipodi:arg1="0.69473828"
       sodipodi:arg2="1.3230568"
       inkscape:rounded="0"
       inkscape:randomized="0"
       d="M 12.997114,79.755019 1.0813309,76.88596 -8.0373694,85.075385 -8.9909116,72.856214 -19.597351,66.714486 -8.2708899,62.031682 -5.7073297,50.046461 2.2463505,59.3715 14.437157,58.105953 8.0263408,68.551948 Z"
       inkscape:transform-center-x="1.398541"
       inkscape:transform-center-y="-0.37853874"
       transform="translate(207.95383,30.720451)" />
    <path
       sodipodi:type="star"
       style="fill:#ffaaaa;stroke-width:0.264583"
       id="path1438-3"
       inkscape:flatsided="false"
       sodipodi:sides="5"
       sodipodi:cx="-1.1815559"
       sodipodi:cy="67.939461"
       sodipodi:r1="18.456491"
       sodipodi:r2="9.2282448"
       sodipodi:arg1="0.69473828"
       sodipodi:arg2="1.3230568"
       inkscape:rounded="0"
       inkscape:randomized="0"
       d="M 12.997114,79.755019 1.0813309,76.88596 -8.0373694,85.075385 -8.9909116,72.856214 -19.597351,66.714486 -8.2708899,62.031682 -5.7073297,50.046461 2.2463505,59.3715 14.437157,58.105953 8.0263408,68.551948 Z"
       inkscape:transform-center-x="1.398541"
       inkscape:transform-center-y="-0.37853874"
       transform="translate(192.81058,-70.514814)" />
    <path
       sodipodi:type="star"
       style="fill:#ffaaaa;stroke-width:0.264583"
       id="path1438-1"
       inkscape:flatsided="false"
       sodipodi:sides="5"
       sodipodi:cx="-1.1815559"
       sodipodi:cy="67.939461"
       sodipodi:r1="18.456491"
       sodipodi:r2="9.2282448"
       sodipodi:arg1="0.69473828"
       sodipodi:arg2="1.3230568"
       inkscape:rounded="0"
       inkscape:randomized="0"
       d="M 12.997114,79.755019 1.0813309,76.88596 -8.0373694,85.075385 -8.9909116,72.856214 -19.597351,66.714486 -8.2708899,62.031682 -5.7073297,50.046461 2.2463505,59.3715 14.437157,58.105953 8.0263408,68.551948 Z"
       inkscape:transform-center-x="1.398541"
       inkscape:transform-center-y="-0.37853874"
       transform="translate(9.0786498,34.052877)" />
    <path
       sodipodi:type="star"
       style="fill:#ffaaaa;stroke-width:0.264583"
       id="path1438-0"
       inkscape:flatsided="false"
       sodipodi:sides="5"
       sodipodi:cx="-1.1815559"
       sodipodi:cy="67.939461"
       sodipodi:r1="18.456491"
       sodipodi:r2="9.2282448"
       sodipodi:arg1="0.69473828"
       sodipodi:arg2="1.3230568"
       inkscape:rounded="0"
       inkscape:randomized="0"
       d="M 12.997114,79.755019 1.0813309,76.88596 -8.0373694,85.075385 -8.9909116,72.856214 -19.597351,66.714486 -8.2708899,62.031682 -5.7073297,50.046461 2.2463505,59.3715 14.437157,58.105953 8.0263408,68.551948 Z"
       inkscape:transform-center-x="1.398541"
       inkscape:transform-center-y="-0.37853874"
       transform="translate(172.13336,63.591767)" />
    <path
       sodipodi:type="star"
       style="fill:#ffaaaa;stroke-width:0.264583"
       id="path1440"
       inkscape:flatsided="false"
       sodipodi:sides="5"
       sodipodi:cx="4.726223"
       sodipodi:cy="102.20458"
       sodipodi:r1="18.914122"
       sodipodi:r2="9.4570599"
       sodipodi:arg1="0.89605538"
       sodipodi:arg2="1.5243739"
       inkscape:rounded="0"
       inkscape:randomized="0"
       d="m 16.541781,116.97403 -11.376696,-5.32258 -10.8342331,6.35441 1.5464782,-12.46465 -9.3913581,-8.340351 12.3324724,-2.381 5.0300547,-11.509022 6.0754088,10.993109 12.5001031,1.227383 -8.577663,9.175111 z"
       inkscape:transform-center-x="0.19989334"
       inkscape:transform-center-y="-1.1249744"
       transform="matrix(0.73697934,0,0,0.72755609,207.94402,-26.927814)" />
    <path
       sodipodi:type="star"
       style="fill:#ffaaaa;stroke-width:0.264583"
       id="path1442"
       inkscape:flatsided="false"
       sodipodi:sides="5"
       sodipodi:cx="120.51869"
       sodipodi:cy="28.948118"
       sodipodi:r1="30.912987"
       sodipodi:r2="15.456491"
       sodipodi:arg1="0.45510081"
       sodipodi:arg2="1.0834193"
       inkscape:rounded="0"
       inkscape:randomized="0"
       d="m 148.28525,42.53601 -20.52813,0.06891 -11.58094,16.949655 -6.40908,-19.50212 -19.698791,-5.776399 16.567101,-12.121884 -0.59358,-20.5196667 16.64812,12.0103837 19.33193,-6.9054526 -6.278,19.5447096 z"
       inkscape:transform-center-x="1.341912"
       inkscape:transform-center-y="1.6464236"
       transform="translate(21.268001,56.714679)" />
    <path
       sodipodi:type="star"
       style="fill:#ffaaaa;stroke-width:0.264583"
       id="path1438-7"
       inkscape:flatsided="false"
       sodipodi:sides="5"
       sodipodi:cx="-1.1815559"
       sodipodi:cy="67.939461"
       sodipodi:r1="18.456491"
       sodipodi:r2="9.2282448"
       sodipodi:arg1="0.69473828"
       sodipodi:arg2="1.3230568"
       inkscape:rounded="0"
       inkscape:randomized="0"
       d="M 12.997114,79.755019 1.0813309,76.88596 -8.0373694,85.075385 -8.9909116,72.856214 -19.597351,66.714486 -8.2708899,62.031682 -5.7073297,50.046461 2.2463505,59.3715 14.437157,58.105953 8.0263408,68.551948 Z"
       inkscape:transform-center-x="1.398541"
       inkscape:transform-center-y="-0.37853874"
       transform="translate(-6.8723549,-15.572463)" />
    <path
       sodipodi:type="star"
       style="fill:#ffaaaa;stroke-width:0.264583"
       id="path1608"
       inkscape:flatsided="false"
       sodipodi:sides="5"
       sodipodi:cx="251.67139"
       sodipodi:cy="72.66568"
       sodipodi:r1="8.7825451"
       sodipodi:r2="4.3912725"
       sodipodi:arg1="0.73781506"
       sodipodi:arg2="1.3661336"
       inkscape:rounded="0"
       inkscape:randomized="0"
       d="m 258.16994,78.573459 -5.60608,-1.608154 -4.50294,3.706474 -0.20293,-5.828654 -4.91655,-3.137183 5.48067,-1.994152 1.46434,-5.64536 3.59017,4.5962 5.82156,-0.351841 -3.26182,4.83476 z"
       inkscape:transform-center-x="0.55157922"
       inkscape:transform-center-y="-0.29657618" />
    <path
       sodipodi:type="star"
       style="fill:#ffaaaa;stroke-width:0.264583"
       id="path1610"
       inkscape:flatsided="false"
       sodipodi:sides="5"
       sodipodi:cx="245.7636"
       sodipodi:cy="20.677225"
       sodipodi:r1="6.0824304"
       sodipodi:r2="3.0412152"
       sodipodi:arg1="1.0636978"
       sodipodi:arg2="1.6920164"
       inkscape:rounded="0"
       inkscape:randomized="0"
       d="m 248.71749,25.994226 -3.32165,-2.298103 -3.77621,1.433461 1.15918,-3.869223 -2.53022,-3.148427 4.03806,-0.09321 2.21245,-3.379296 1.33648,3.811617 3.89759,1.059907 -3.21207,2.448918 z"
       inkscape:transform-center-x="-0.22728138"
       inkscape:transform-center-y="-0.36039818" />
    <path
       sodipodi:type="star"
       style="fill:#ffaaaa;stroke-width:0.264583"
       id="path1612"
       inkscape:flatsided="false"
       sodipodi:sides="5"
       sodipodi:cx="242.21893"
       sodipodi:cy="114.61091"
       sodipodi:r1="4.8716793"
       sodipodi:r2="2.4358399"
       sodipodi:arg1="1.815775"
       sodipodi:arg2="2.4440935"
       inkscape:rounded="0"
       inkscape:randomized="0"
       d="m 241.03738,119.33713 -0.6854,-3.16167 -2.99307,-1.22779 2.79513,-1.62887 0.24279,-3.22599 2.41288,2.15499 3.14313,-0.76599 -1.30389,2.96072 1.69977,2.75259 -3.21873,-0.32516 z"
       inkscape:transform-center-x="0.36512387"
       inkscape:transform-center-y="0.10406217" />
    <path
       sodipodi:type="star"
       style="fill:#ffaaaa;stroke-width:0.264583"
       id="path1614"
       inkscape:flatsided="false"
       sodipodi:sides="5"
       sodipodi:cx="241.03738"
       sodipodi:cy="49.625347"
       sodipodi:r1="3.4447975"
       sodipodi:r2="1.7223989"
       sodipodi:arg1="2.1112158"
       sodipodi:arg2="2.7395344"
       inkscape:rounded="0"
       inkscape:randomized="0"
       d="m 239.26505,52.579237 0.18728,-2.279892 -1.77194,-1.446785 2.22618,-0.526409 0.82841,-2.132302 1.18857,1.954553 2.28393,0.12895 -1.4916,1.734389 0.58314,2.211998 -2.11043,-0.882643 z"
       inkscape:transform-center-x="0.093451198"
       inkscape:transform-center-y="-0.23880508" />
    <path
       sodipodi:type="star"
       style="fill:#ffaaaa;stroke-width:0.264583"
       id="path1616"
       inkscape:flatsided="false"
       sodipodi:sides="5"
       sodipodi:cx="177.82416"
       sodipodi:cy="67.348679"
       sodipodi:r1="3.1814365"
       sodipodi:r2="1.5907183"
       sodipodi:arg1="1.1902899"
       sodipodi:arg2="1.8186085"
       inkscape:rounded="0"
       inkscape:randomized="0"
       d="m 179.00571,70.302568 -1.57173,-1.411765 -2.05402,0.494404 0.85698,-1.931066 -1.10493,-1.800708 2.10137,0.218301 1.37113,-1.607304 0.44175,2.065984 1.95233,0.80734 -1.82836,1.058548 z"
       inkscape:transform-center-x="-0.2411404"
       inkscape:transform-center-y="-0.065180038" />
    <path
       sodipodi:type="star"
       style="fill:#ffaaaa;stroke-width:0.264583"
       id="path1618"
       inkscape:flatsided="false"
       sodipodi:sides="5"
       sodipodi:cx="181.95959"
       sodipodi:cy="34.265121"
       sodipodi:r1="3.5446675"
       sodipodi:r2="1.7723337"
       sodipodi:arg1="1.5707963"
       sodipodi:arg2="2.1991149"
       inkscape:rounded="0"
       inkscape:randomized="0"
       d="m 181.95959,37.809789 -1.04175,-2.110819 -2.32942,-0.338486 1.68559,-1.643044 -0.39792,-2.320015 2.0835,1.095363 2.08351,-1.095363 -0.39792,2.320015 1.68559,1.643044 -2.32942,0.338486 z"
       inkscape:transform-center-x="2.2924043e-06"
       inkscape:transform-center-y="0.33848518" />
    <path
       sodipodi:type="star"
       style="fill:#ffaaaa;stroke-width:0.264583"
       id="path1620"
       inkscape:flatsided="false"
       sodipodi:sides="5"
       sodipodi:cx="109.88469"
       sodipodi:cy="107.52158"
       sodipodi:r1="4.6141229"
       sodipodi:r2="2.3070614"
       sodipodi:arg1="0.69473828"
       sodipodi:arg2="1.3230568"
       inkscape:rounded="0"
       inkscape:randomized="0"
       d="m 113.42936,110.47547 -2.97895,-0.71726 -2.27967,2.04735 -0.23839,-3.05479 -2.65161,-1.53543 2.83162,-1.1707 0.64089,-2.99631 1.98842,2.33126 3.0477,-0.31638 -1.60271,2.6115 z"
       inkscape:transform-center-x="0.34963665"
       inkscape:transform-center-y="-0.094635826" />
    <path
       sodipodi:type="star"
       style="fill:#ffaaaa;stroke-width:0.264583"
       id="path1622"
       inkscape:flatsided="false"
       sodipodi:sides="5"
       sodipodi:cx="101.6138"
       sodipodi:cy="36.628231"
       sodipodi:r1="3.7828243"
       sodipodi:r2="1.8914123"
       sodipodi:arg1="0.67474094"
       sodipodi:arg2="1.3030595"
       inkscape:rounded="0"
       inkscape:randomized="0"
       d="m 104.56769,38.991343 -2.45352,-0.539087 -1.83502,1.715533 -0.24548,-2.500021 -2.198619,-1.215082 2.301809,-1.006011 0.4762,-2.466494 1.66807,1.878271 2.49292,-0.309295 -1.27088,2.166846 z"
       inkscape:transform-center-x="0.30924839"
       inkscape:transform-center-y="-0.054246775" />
    <path
       sodipodi:type="star"
       style="fill:#ffaaaa;stroke-width:0.264583"
       id="path1624"
       inkscape:flatsided="false"
       sodipodi:sides="5"
       sodipodi:cx="213.27083"
       sodipodi:cy="124.65414"
       sodipodi:r1="4.7630038"
       sodipodi:r2="2.3815019"
       sodipodi:arg1="1.6951513"
       sodipodi:arg2="2.3234699"
       inkscape:rounded="0"
       inkscape:randomized="0"
       d="m 212.68005,129.38036 -1.0372,-2.98805 -3.04949,-0.83955 2.5213,-1.9098 -0.14389,-3.15967 2.59545,1.80774 2.96056,-1.11324 -0.91722,3.02704 1.97361,2.47165 -3.16231,0.0631 z"
       inkscape:transform-center-x="0.1825631"
       inkscape:transform-center-y="0.27768732" />
    <path
       sodipodi:type="star"
       style="fill:#ffaaaa;stroke-width:0.264583"
       id="path1626"
       inkscape:flatsided="false"
       sodipodi:sides="5"
       sodipodi:cx="144.74059"
       sodipodi:cy="53.17001"
       sodipodi:r1="2.9538894"
       sodipodi:r2="1.4769447"
       sodipodi:arg1="1.5707963"
       sodipodi:arg2="2.1991149"
       inkscape:rounded="0"
       inkscape:randomized="0"
       d="m 144.74059,56.123899 -0.86813,-1.759016 -1.94119,-0.282071 1.40466,-1.369203 -0.3316,-1.933346 1.73626,0.912802 1.73625,-0.912802 -0.3316,1.933346 1.40466,1.369203 -1.94119,0.282071 z"
       inkscape:transform-center-x="1.8235034e-06"
       inkscape:transform-center-y="0.28207068" />
    <path
       sodipodi:type="star"
       style="fill:#ffaaaa;stroke-width:0.264583"
       id="path1628"
       inkscape:flatsided="false"
       sodipodi:sides="5"
       sodipodi:cx="52.579231"
       sodipodi:cy="87.435127"
       sodipodi:r1="4.1774306"
       sodipodi:r2="2.0887153"
       sodipodi:arg1="0.14189705"
       sodipodi:arg2="0.77021559"
       inkscape:rounded="0"
       inkscape:randomized="0"
       d="m 56.714677,88.025905 -2.636248,0.863574 -0.783138,2.661251 -1.635953,-2.240362 -2.773003,0.07756 1.625174,-2.248194 -0.930673,-2.613314 2.640365,0.850902 2.197816,-1.692681 0.0067,2.77408 z"
       inkscape:transform-center-x="-0.22127396"
       inkscape:transform-center-y="0.18255931" />
    <path
       sodipodi:type="star"
       style="fill:#ffaaaa;stroke-width:0.264583"
       id="path1630"
       inkscape:flatsided="false"
       sodipodi:sides="5"
       sodipodi:cx="11.22478"
       sodipodi:cy="8.2708902"
       sodipodi:r1="3.4447975"
       sodipodi:r2="1.7223988"
       sodipodi:arg1="0.5404195"
       sodipodi:arg2="1.168738"
       inkscape:rounded="0"
       inkscape:randomized="0"
       d="M 14.17867,10.043224 11.898778,9.8559406 10.451993,11.627887 9.9255843,9.4017076 7.7932817,8.5732948 9.7478353,7.3847234 9.8767849,5.1007895 11.611174,6.5923917 13.823172,6.0092556 12.940529,8.1196879 Z"
       inkscape:transform-center-x="0.2388046"
       inkscape:transform-center-y="0.093448057" />
    <path
       sodipodi:type="star"
       style="fill:#ffaaaa;stroke-width:0.264583"
       id="path1632"
       inkscape:flatsided="false"
       sodipodi:sides="5"
       sodipodi:cx="28.357342"
       sodipodi:cy="119.33713"
       sodipodi:r1="3.5446675"
       sodipodi:r2="1.7723337"
       sodipodi:arg1="0"
       sodipodi:arg2="0.62831853"
       inkscape:rounded="0"
       inkscape:randomized="0"
       d="m 31.902009,119.33713 -2.110819,1.04175 -0.338486,2.32943 -1.643043,-1.68559 -2.320015,0.39791 1.095362,-2.0835 -1.095362,-2.08351 2.320015,0.39792 1.643043,-1.68559 0.338486,2.32943 z"
       inkscape:transform-center-x="-0.33848526"
       inkscape:transform-center-y="-1.50346e-06" />
    <path
       sodipodi:type="star"
       style="fill:#ffaaaa;stroke-width:0.264583"
       id="path1634"
       inkscape:flatsided="false"
       sodipodi:sides="5"
       sodipodi:cx="16.54178"
       sodipodi:cy="69.711792"
       sodipodi:r1="5.446703"
       sodipodi:r2="2.7233515"
       sodipodi:arg1="0.21866895"
       sodipodi:arg2="0.84698748"
       inkscape:rounded="0"
       inkscape:randomized="0"
       d="m 21.858781,70.893348 -3.513479,0.859021 -1.284204,3.381312 -1.902703,-3.076065 -3.61266,-0.176468 2.337545,-2.760134 -0.948543,-3.490375 3.347385,1.370208 3.026428,-1.980703 -0.268747,3.60697 z"
       inkscape:transform-center-x="-0.16047768"
       inkscape:transform-center-y="0.36511994" />
    <path
       sodipodi:type="star"
       style="fill:#ffaaaa;stroke-width:0.264583"
       id="path1636"
       inkscape:flatsided="false"
       sodipodi:sides="5"
       sodipodi:cx="209.72615"
       sodipodi:cy="14.178669"
       sodipodi:r1="1.3210195"
       sodipodi:r2="0.66050977"
       sodipodi:arg1="2.677945"
       sodipodi:arg2="3.3062636"
       inkscape:rounded="0"
       inkscape:randomized="0"
       d="m 208.54459,14.769447 0.52999,-0.699054 -0.27541,-0.83289 0.82861,0.288023 0.70702,-0.519307 -0.0179,0.877061 0.71237,0.511941 -0.83966,0.254031 -0.26675,0.835704 -0.50106,-0.720062 z"
       inkscape:transform-center-x="-0.060794087"
       inkscape:transform-center-y="0.066917981" />
    <text
       xml:space="preserve"
       transform="scale(0.26458333)"
       id="text1638"
       style="font-style:normal;font-weight:normal;font-size:40px;line-height:1.25;font-family:sans-serif;white-space:pre;shape-inside:url(#rect1640);display:inline;fill:#000000;fill-opacity:1;stroke:none" />
    <text
       xml:space="preserve"
       transform="scale(0.26458333)"
       id="text1644"
       style="font-style:normal;font-weight:normal;font-size:266.667px;line-height:1.25;font-family:sans-serif;white-space:pre;shape-inside:url(#rect1646);display:inline;fill:#000000;fill-opacity:1;stroke:none" />
    <text
       xml:space="preserve"
       transform="matrix(0.33292266,0,0,0.34025891,-82.205917,-16.682502)"
       id="text1656"
       style="font-style:normal;font-variant:normal;font-weight:bold;font-stretch:normal;font-size:192px;line-height:1.25;font-family:'Century Gothic';-inkscape-font-specification:'Century Gothic, Bold';font-variant-ligatures:normal;font-variant-caps:normal;font-variant-numeric:normal;font-variant-east-asian:normal;white-space:pre;shape-inside:url(#rect1658);display:inline;fill:#ffffff;fill-opacity:1;stroke:none"><tspan
         x="1071.7734"
         y="250.2299"
         id="tspan591">Atawhai Waikato's </tspan></text>
    <text
       xml:space="preserve"
       transform="matrix(0.33292266,0,0,0.34025891,31.705544,22.485638)"
       id="text1656-5"
       style="font-style:normal;font-variant:normal;font-weight:bold;font-stretch:normal;font-size:192px;line-height:1.25;font-family:'Century Gothic';-inkscape-font-specification:'Century Gothic, Bold';font-variant-ligatures:normal;font-variant-caps:normal;font-variant-numeric:normal;font-variant-east-asian:normal;white-space:pre;shape-inside:url(#rect1658-0);display:inline;fill:#ffffff;fill-opacity:1;stroke:none"><tspan
         x="1071.7734"
         y="250.2299"
         id="tspan595"><tspan
   style="font-size:104.815px"
   id="tspan593">Digital Technologies Portofolio</tspan> </tspan></text>
    <ellipse
       style="fill:#ffaaaa;stroke-width:0.330352"
       id="path1817"
       cx="-920.50128"
       cy="285.52356"
       rx="20.212358"
       ry="25.656681"
       transform="matrix(-0.92339841,-0.38384291,0.327008,-0.94502157,0,0)" />
    <ellipse
       style="fill:#ffaaaa;stroke-width:0.33019"
       id="path1817-5"
       cx="-680.18378"
       cy="-725.18402"
       rx="19.08396"
       ry="27.146896"
       transform="matrix(-0.72444412,0.68933353,-0.65865006,-0.7524494,0,0)" />
    <ellipse
       style="fill:#ffaaaa;stroke-width:0.330495"
       id="path1817-2"
       cx="331.31628"
       cy="-843.02148"
       rx="18.987873"
       ry="27.334789"
       transform="matrix(0.36695571,0.93023841,-0.95471249,0.29752993,0,0)" />
    <ellipse
       style="fill:#ffaaaa;stroke-width:0.330204"
       id="path1817-3"
       cx="-507.46881"
       cy="810.26984"
       rx="20.346745"
       ry="25.464249"
       transform="matrix(-0.51610442,-0.85652567,0.87818461,-0.47832186,0,0)" />
    <ellipse
       style="fill:#ffaaaa;stroke-width:0.330793"
       id="path1817-9"
       cx="-888.73383"
       cy="-247.8159"
       rx="19.538637"
       ry="26.612051"
       transform="matrix(-0.9743072,0.22522318,-0.31653953,-0.94857932,0,0)" />
    <ellipse
       style="fill:#ffaaaa;stroke-width:0.231839"
       id="path2101"
       cx="-634.46173"
       cy="693.77808"
       rx="10.767842"
       ry="8.0227537"
       transform="matrix(-0.63521741,-0.77233337,0.78451464,-0.6201103,0,0)" />
    <ellipse
       style="fill:#ffffff;stroke-width:0.264583"
       id="path2103"
       cx="951.35651"
       cy="59.110809"
       rx="11.704804"
       ry="11.491991" />
    <ellipse
       style="fill:#ffaaaa;stroke-width:0.330352"
       id="path1817-8"
       cx="-352.33441"
       cy="-16.838449"
       rx="20.212358"
       ry="25.656681"
       transform="matrix(-0.92339841,-0.38384291,0.327008,-0.94502157,0,0)" />
    <ellipse
       style="fill:#ffaaaa;stroke-width:0.33019"
       id="path1817-5-7"
       cx="-166.0146"
       cy="-344.05237"
       rx="19.08396"
       ry="27.146896"
       transform="matrix(-0.72444412,0.68933353,-0.65865006,-0.7524494,0,0)" />
    <ellipse
       style="fill:#ffaaaa;stroke-width:0.330495"
       id="path1817-2-2"
       cx="210.06017"
       cy="-236.53151"
       rx="18.987873"
       ry="27.334789"
       transform="matrix(0.36695571,0.93023841,-0.95471249,0.29752993,0,0)" />
    <ellipse
       style="fill:#ffaaaa;stroke-width:0.330204"
       id="path1817-3-9"
       cx="-268.41003"
       cy="240.7542"
       rx="20.346745"
       ry="25.464249"
       transform="matrix(-0.51610442,-0.85652567,0.87818461,-0.47832186,0,0)" />
    <ellipse
       style="fill:#ffaaaa;stroke-width:0.330793"
       id="path1817-9-7"
       cx="-273.09137"
       cy="-172.9617"
       rx="19.538637"
       ry="26.612051"
       transform="matrix(-0.9743072,0.22522318,-0.31653953,-0.94857932,0,0)" />
    <ellipse
       style="fill:#ffaaaa;stroke-width:0.231839"
       id="path2101-2"
       cx="-300.82208"
       cy="169.14099"
       rx="10.767842"
       ry="8.0227537"
       transform="matrix(-0.63521741,-0.77233337,0.78451464,-0.6201103,0,0)" />
    <ellipse
       style="fill:#ffffff;stroke-width:0.264583"
       id="path2103-1"
       cx="327.83731"
       cy="126.7626"
       rx="11.704804"
       ry="11.491991" />
  </g>
</svg>
